<?xml version="1.0" standalone="no"?><!DOCTYPE svg PUBLIC "-//W3C//DTD SVG 1.1//EN" "http://www.w3.org/Graphics/SVG/1.1/DTD/svg11.dtd"><svg t="1716630906625" class="icon" viewBox="0 0 1024 1024" version="1.1" xmlns="http://www.w3.org/2000/svg" p-id="4489" xmlns:xlink="http://www.w3.org/1999/xlink" width="200" height="200"><path d="M924.010667 1024H100.010667A100.053333 100.053333 0 0 1 0 924.010667V100.010667A100.053333 100.053333 0 0 1 100.010667 0h824A100.053333 100.053333 0 0 1 1024 100.010667v824A100.053333 100.053333 0 0 1 924.010667 1024zM666.005333 376a69.952 69.952 0 0 1-69.994666-69.994667v-112H290.986667c-16.597333 0-30.016 13.397333-30.016 29.994667v576c0 16.597333 13.418667 29.994667 30.016 29.994667h441.984c16.618667 0 30.016-13.397333 30.016-29.994667V376h-97.002667z m-2.709333-14.997333h95.210667c3.093333 0 4.693333-3.712 2.602666-5.994667l-144.917333-154.816a3.584 3.584 0 0 0-6.186667 2.410667v105.194666a53.205333 53.205333 0 0 0 53.290667 53.205334z m-322.304 94.997333h342.016v34.005333H340.992v-34.005333z m0 112.490667h342.016v34.005333H340.992v-34.005333z m0 112.512h342.016v34.005333H340.992v-34.005333z" fill="#9AD747" p-id="4490"></path></svg>