<?xml version="1.0" standalone="no"?><!DOCTYPE svg PUBLIC "-//W3C//DTD SVG 1.1//EN" "http://www.w3.org/Graphics/SVG/1.1/DTD/svg11.dtd"><svg t="1716630879073" class="icon" viewBox="0 0 1024 1024" version="1.1" xmlns="http://www.w3.org/2000/svg" p-id="3403" xmlns:xlink="http://www.w3.org/1999/xlink" width="200" height="200"><path d="M928.914286 358.4v-36.571429c0-65.828571-51.2-109.714286-117.028572-109.714285H438.857143L329.142857 117.028571h-219.428571C51.2 117.028571 0 168.228571 0 234.057143v607.085714c0 58.514286 51.2 109.714286 117.028571 109.714286h694.857143c58.514286 0 109.714286-51.2 109.714286-109.714286L1024 358.4h-95.085714z m-95.085715 0H234.057143l-102.4 504.685714h-14.628572c-14.628571 0-29.257143-14.628571-29.257142-21.942857V234.057143c0-14.628571 14.628571-21.942857 29.257142-21.942857H292.571429l109.714285 102.4H804.571429c14.628571 0 29.257143 7.314286 29.257142 21.942857v21.942857z" fill="#33A95D" p-id="3404"></path></svg>